<svg width="48" height="48" xmlns="http://www.w3.org/2000/svg">
 <defs>
  <linearGradient y2="Infinity" y1="Infinity" x2="Infinity" x1="Infinity" id="SVGID_1_">
   <stop stop-color="#A364AB" offset="0"/>
   <stop stop-color="#8C3D96" offset="1"/>
  </linearGradient>
  <linearGradient y2="Infinity" y1="Infinity" x2="Infinity" x1="Infinity" id="SVGID_2_">
   <stop stop-color="#8C3D96" offset="0"/>
   <stop stop-color="#A364AB" offset="1"/>
  </linearGradient>
 </defs>
 <g>
  <title>background</title>
  <rect fill="none" id="canvas_background" height="50" width="50" y="-1" x="-1"/>
 </g>
 <g>
  <title>Layer 1</title>
  <g id="svg_1">
   <g id="svg_2">
    <circle id="svg_3" r="20.417999" fill="url(#SVGID_1_)" cy="24.4662" cx="24.208025"/>
    <path id="svg_4" fill="url(#SVGID_2_)" d="m24.208019,41.796993c-9.942646,0 -18.031729,-7.774666 -18.031729,-17.33075c0,-9.55613 8.089083,-17.330749 18.031729,-17.330749c9.943073,0 18.03175,7.774619 18.03175,17.330749c0,9.556084 -8.088676,17.33075 -18.03175,17.33075z"/>
   </g>
   <path id="svg_5" opacity="0.3" d="m25.306746,19.993479l0,-1.768341c0,-0.276855 0.189426,-0.502159 0.422617,-0.502159l2.25424,0c0.699131,0 1.267809,-0.589851 1.267809,-1.31497l0,-1.040448l-0.845175,0l0,1.040448c0,0.277294 -0.189438,0.50259 -0.422634,0.50259l-2.25424,0c-0.699131,0 -1.26786,0.589853 -1.26786,1.314539l0,1.768341l-9.720094,0l0,14.871126l20.285665,0l0,-14.871126l-9.720327,0zm-1.570074,2.417511l2.041561,0l0,1.953394l-2.041561,0l0,-1.953394zm0,4.136282l2.041561,0l0,1.953394l-2.041561,0l0,-1.953394zm-3.695282,-4.136282l2.041557,0l0,1.953394l-2.041557,0l0,-1.953394zm0,4.136282l2.041557,0l0,1.953394l-2.041557,0l0,-1.953394zm-1.6537,6.089642l-2.041595,0l0,-1.953396l2.041595,0l0,1.953396zm0,-8.27253l-2.041595,0l0,-1.953394l2.041595,0l0,1.953394zm11.085835,8.27253l-9.432135,0l0,-1.953396l9.432135,0l0,1.953396zm0,-4.136248l-2.041597,0l0,-1.953394l2.041597,0l0,1.953394zm0,-4.136282l-2.041597,0l0,-1.953394l2.041597,0l0,1.953394zm3.695295,8.27253l-2.041595,0l0,-1.953396l2.041595,0l0,1.953396zm0,-8.27253l-2.041595,0l0,-1.953394l2.041595,0l0,1.953394z"/>
   <path id="svg_6" fill="#FFFFFF" d="m24.630552,19.343576l0,-1.768341c0,-0.276859 0.189423,-0.502159 0.422619,-0.502159l2.254236,0c0.699135,0 1.267815,-0.589851 1.267815,-1.314968l0,-1.040451l-0.845182,0l0,1.040451c0,0.27729 -0.189432,0.502592 -0.422632,0.502592l-2.254236,0c-0.699127,0 -1.267857,0.589849 -1.267857,1.314535l0,1.768341l-9.720098,0l0,14.87113l20.285664,0l0,-14.87113l-9.720327,0zm-1.570076,2.417509l2.041561,0l0,1.953394l-2.041561,0l0,-1.953394zm0,4.136286l2.041561,0l0,1.95339l-2.041561,0l0,-1.95339zm-3.695284,-4.136286l2.041565,0l0,1.953394l-2.041565,0l0,-1.953394zm0,4.136286l2.041565,0l0,1.95339l-2.041565,0l0,-1.95339zm-1.653688,6.089634l-2.041596,0l0,-1.953392l2.041596,0l0,1.953392zm0,-8.272526l-2.041596,0l0,-1.953394l2.041596,0l0,1.953394zm11.085823,8.272526l-9.432135,0l0,-1.953392l9.432135,0l0,1.953392zm0,-4.136244l-2.041597,0l0,-1.95339l2.041597,0l0,1.95339zm0,-4.136282l-2.041597,0l0,-1.953394l2.041597,0l0,1.953394zm3.695292,8.272526l-2.041586,0l0,-1.953392l2.041586,0l0,1.953392zm0,-8.272526l-2.041586,0l0,-1.953394l2.041586,0l0,1.953394z"/>
  </g>
 </g>
</svg>